<?xml version="1.0" encoding="UTF-8"?>
<svg id="Layer_2" data-name="Layer 2" xmlns="http://www.w3.org/2000/svg" viewBox="0 0 454.72 64.85">
  <defs>
    <style>
      .cls-1 {
        fill: #3f3f3f;
      }
    </style>
  </defs>
  <g id="Layer_1-2" data-name="Layer 1">
    <g>
      <g>
        <path class="cls-1" d="M78.82,3.3h6.57l7.9,32.49c.84,3.35,1.89,8.45,1.89,8.45h.14s1.19-5.31,2.1-8.59L106.42,3.3h6.78l8.73,32.35c.91,3.35,2.03,8.59,2.03,8.59h.14s1.19-5.38,1.96-8.45l8.31-32.49h6.36l-13.91,49.96h-6.01l-9.15-35.22c-.77-2.93-1.82-7.62-1.82-7.62h-.14s-1.05,4.68-1.89,7.62l-9.78,35.22h-6.29L78.82,3.3Z"/>
        <path class="cls-1" d="M139.34,35.23c0-10.48,6.71-19,17.47-19s17.4,8.52,17.4,19-6.57,19.01-17.4,19.01-17.47-8.52-17.47-19.01ZM168.41,35.23c0-7.97-3.91-14.32-11.6-14.32s-11.67,6.36-11.67,14.32,3.98,14.25,11.67,14.25,11.6-6.29,11.6-14.25Z"/>
        <path class="cls-1" d="M184.84,23.14h.14c2.17-3.49,5.94-6.43,10.76-6.43,1.05,0,1.61.14,2.31.42v5.45h-.21c-.84-.28-1.4-.35-2.51-.35-5.59,0-10.48,4.19-10.48,10.97v20.05h-5.66V17.13h5.66v6.01Z"/>
        <path class="cls-1" d="M202.66,3.3h5.66v49.96h-5.66V3.3Z"/>
        <path class="cls-1" d="M213.49,35.3c0-12.02,6.92-19,15.86-19,5.1,0,9.01,2.51,11.32,5.94h.14V3.3h5.66v49.96h-5.66v-4.4h-.14c-2.73,3.49-6.08,5.45-11.18,5.45-9.85,0-16-7.41-16-19.01ZM241.16,35.37c0-8.38-4.05-14.25-11.53-14.25-6.85,0-10.34,6.15-10.34,14.25s3.49,14.18,10.41,14.18c8.04,0,11.46-6.01,11.46-14.18Z"/>
        <path class="cls-1" d="M264.71,3.3h6.29v21.24h26.69V3.3h6.29v49.96h-6.29v-23.62h-26.69v23.62h-6.29V3.3Z"/>
        <path class="cls-1" d="M309.79,35.23c0-10.48,6.85-19,17.12-19,10.83,0,16.63,8.38,16.63,20.33h-27.95c.42,7.34,4.4,12.93,11.67,12.93,5.24,0,8.73-2.52,9.99-7.41h5.52c-1.68,7.76-7.34,12.16-15.51,12.16-11.04,0-17.47-8.52-17.47-19.01ZM315.73,32.29h21.73c-.35-7.2-4.05-11.6-10.55-11.6s-10.34,5.03-11.18,11.6Z"/>
        <path class="cls-1" d="M348.57,3.3h5.66v49.96h-5.66V3.3Z"/>
        <path class="cls-1" d="M361.43,17.13h5.66v5.1h.14c2.72-3.7,6.36-5.94,11.6-5.94,9.15,0,15.51,6.99,15.51,19s-5.94,19.01-15.72,19.01c-4.89,0-8.38-1.47-11.39-5.31h-.14v15.86h-5.66V17.13ZM388.54,35.37c0-8.11-3.42-14.25-10.27-14.25-7.9,0-11.53,6.43-11.53,14.25s3.14,14.18,11.46,14.18c6.92,0,10.34-6.01,10.34-14.18Z"/>
        <path class="cls-1" d="M397.28,35.23c0-10.48,6.85-19,17.12-19,10.83,0,16.63,8.38,16.63,20.33h-27.95c.42,7.34,4.4,12.93,11.67,12.93,5.24,0,8.73-2.52,9.99-7.41h5.52c-1.68,7.76-7.34,12.16-15.51,12.16-11.04,0-17.47-8.52-17.47-19.01ZM403.22,32.29h21.73c-.35-7.2-4.05-11.6-10.55-11.6s-10.34,5.03-11.18,11.6Z"/>
        <path class="cls-1" d="M441.52,23.14h.14c2.17-3.49,5.94-6.43,10.76-6.43,1.05,0,1.61.14,2.31.42v5.45h-.21c-.84-.28-1.4-.35-2.51-.35-5.59,0-10.48,4.19-10.48,10.97v20.05h-5.66V17.13h5.66v6.01Z"/>
      </g>
      <g>
        <circle class="cls-1" cx="19.12" cy="28.8" r="3.93"/>
        <circle class="cls-1" cx="28.8" cy="28.8" r="3.93"/>
        <circle class="cls-1" cx="38.48" cy="28.8" r="3.93"/>
      </g>
      <path class="cls-1" d="M28.8,57.6C12.92,57.6,0,44.68,0,28.8S12.92,0,28.8,0s28.8,12.92,28.8,28.8-12.92,28.8-28.8,28.8ZM28.8,5.82c-12.67,0-22.98,10.31-22.98,22.98s10.31,22.98,22.98,22.98,22.98-10.31,22.98-22.98S41.47,5.82,28.8,5.82Z"/>
    </g>
  </g>
</svg>