<?xml version="1.0" encoding="UTF-8"?>
<svg id="Layer_2" data-name="Layer 2" xmlns="http://www.w3.org/2000/svg" viewBox="0 0 279.67 45.53">
  <g id="Layer_1-2" data-name="Layer 1">
    <g>
      <g>
        <path d="M64.51,8.3h3.76l4.52,18.6c.48,1.92,1.08,4.84,1.08,4.84h.08s.68-3.04,1.2-4.92l5.16-18.52h3.88l5,18.52c.52,1.92,1.16,4.92,1.16,4.92h.08s.68-3.08,1.12-4.84l4.76-18.6h3.64l-7.96,28.6h-3.44l-5.24-20.16c-.44-1.68-1.04-4.36-1.04-4.36h-.08s-.6,2.68-1.08,4.36l-5.6,20.16h-3.6l-7.4-28.6Z"/>
        <path d="M99.15,26.58c0-6,3.84-10.88,10-10.88s9.96,4.88,9.96,10.88-3.76,10.88-9.96,10.88-10-4.88-10-10.88ZM115.79,26.58c0-4.56-2.24-8.2-6.64-8.2s-6.68,3.64-6.68,8.2,2.28,8.16,6.68,8.16,6.64-3.6,6.64-8.16Z"/>
        <path d="M125.19,19.66h.08c1.24-2,3.4-3.68,6.16-3.68.6,0,.92.08,1.32.24v3.12h-.12c-.48-.16-.8-.2-1.44-.2-3.2,0-6,2.4-6,6.28v11.48h-3.24v-20.68h3.24v3.44Z"/>
        <path d="M135.39,8.3h3.24v28.6h-3.24V8.3Z"/>
        <path d="M141.59,26.62c0-6.88,3.96-10.88,9.08-10.88,2.92,0,5.16,1.44,6.48,3.4h.08v-10.84h3.24v28.6h-3.24v-2.52h-.08c-1.56,2-3.48,3.12-6.4,3.12-5.64,0-9.16-4.24-9.16-10.88ZM157.43,26.66c0-4.8-2.32-8.16-6.6-8.16-3.92,0-5.92,3.52-5.92,8.16s2,8.12,5.96,8.12c4.6,0,6.56-3.44,6.56-8.12Z"/>
        <path d="M170.91,8.3h3.6v12.16h15.28v-12.16h3.6v28.6h-3.6v-13.52h-15.28v13.52h-3.6V8.3Z"/>
        <path d="M196.71,26.58c0-6,3.92-10.88,9.8-10.88,6.2,0,9.52,4.8,9.52,11.64h-16c.24,4.2,2.52,7.4,6.68,7.4,3,0,5-1.44,5.72-4.24h3.16c-.96,4.44-4.2,6.96-8.88,6.96-6.32,0-10-4.88-10-10.88ZM200.11,24.9h12.44c-.2-4.12-2.32-6.64-6.04-6.64s-5.92,2.88-6.4,6.64Z"/>
        <path d="M218.91,8.3h3.24v28.6h-3.24V8.3Z"/>
        <path d="M226.27,16.22h3.24v2.92h.08c1.56-2.12,3.64-3.4,6.64-3.4,5.24,0,8.88,4,8.88,10.88s-3.4,10.88-9,10.88c-2.8,0-4.8-.84-6.52-3.04h-.08v9.08h-3.24v-27.32ZM241.79,26.66c0-4.64-1.96-8.16-5.88-8.16-4.52,0-6.6,3.68-6.6,8.16s1.8,8.12,6.56,8.12c3.96,0,5.92-3.44,5.92-8.12Z"/>
        <path d="M246.79,26.58c0-6,3.92-10.88,9.8-10.88,6.2,0,9.52,4.8,9.52,11.64h-16c.24,4.2,2.52,7.4,6.68,7.4,3,0,5-1.44,5.72-4.24h3.16c-.96,4.44-4.2,6.96-8.88,6.96-6.32,0-10-4.88-10-10.88ZM250.19,24.9h12.44c-.2-4.12-2.32-6.64-6.04-6.64s-5.92,2.88-6.4,6.64Z"/>
        <path d="M272.11,19.66h.08c1.24-2,3.4-3.68,6.16-3.68.6,0,.92.08,1.32.24v3.12h-.12c-.48-.16-.8-.2-1.44-.2-3.2,0-6,2.4-6,6.28v11.48h-3.24v-20.68h3.24v3.44Z"/>
      </g>
      <g>
        <path d="M25.17,2c5.43,0,23.17,1.32,23.17,18.36,0,12.77-10.39,23.17-23.17,23.17S2,33.13,2,20.36C2,3.32,19.73,2,25.17,2M25.17,0C11.27,0,0,6.46,0,20.36s11.27,25.17,25.17,25.17,25.17-11.27,25.17-25.17S39.07,0,25.17,0h0Z"/>
        <path d="M31.41,33.9c-4.69,0-8.5-3.81-8.5-8.5s3.81-8.5,8.5-8.5,8.5,3.81,8.5,8.5-3.81,8.5-8.5,8.5ZM31.41,18.9c-3.58,0-6.5,2.92-6.5,6.5s2.92,6.5,6.5,6.5,6.5-2.92,6.5-6.5-2.92-6.5-6.5-6.5Z"/>
      </g>
    </g>
  </g>
</svg>